name rise30.2954peak35.7071fall66.7804.mot
datacolumns 19
datarows 12
range 4.08166000000000 4.09999300000000
endheader
time	ground_force1_vx	ground_force1_vy	ground_force1_vz	ground_force1_px	ground_force1_py	ground_force1_pz	ground_force2_vx	ground_force2_vy	ground_force2_vz	ground_force2_px	ground_force2_py	ground_force2_pz	ground_torque1_x	ground_torque1_y	ground_torque1_z	ground_torque2_x	ground_torque2_y	ground_torque2_z	
4.08166000000000	11.80813100000000	706.51172699999995	43.38188000000000	0.20713900000000	0.00000000000000	0.11369000000000	0.00000000000000	0.00000000000000	0.00000000000000	0.00000000000000	0.00000000000000	0.00000000000000	0.00000000000000	15.82116800000000	0.00000000000000	0.00000000000000	0.00000000000000	0.00000000000000	
4.08331900000000	11.29157800000000	707.77770199999998	43.40273700000000	0.20597900000000	0.00000000000000	0.11363600000000	0.00000000000000	0.00000000000000	0.00000000000000	0.00000000000000	0.00000000000000	0.00000000000000	0.00000000000000	15.88099500000000	0.00000000000000	0.00000000000000	0.00000000000000	0.00000000000000	
4.08498900000000	10.76264000000000	709.06728999999996	43.42772700000000	0.20480100000000	0.00000000000000	0.11358300000000	0.00000000000000	0.00000000000000	0.00000000000000	0.00000000000000	0.00000000000000	0.00000000000000	0.00000000000000	15.94494600000000	0.00000000000000	0.00000000000000	0.00000000000000	0.00000000000000	
4.08665600000000	10.22149100000000	710.37976300000003	43.45664200000000	0.20360600000000	0.00000000000000	0.11353100000000	0.00000000000000	0.00000000000000	0.00000000000000	0.00000000000000	0.00000000000000	0.00000000000000	0.00000000000000	16.01289800000000	0.00000000000000	0.00000000000000	0.00000000000000	0.00000000000000	
4.08832700000000	9.66834400000000	711.71444699999995	43.48928200000000	0.20239700000000	0.00000000000000	0.11348000000000	0.00000000000000	0.00000000000000	0.00000000000000	0.00000000000000	0.00000000000000	0.00000000000000	0.00000000000000	16.08472800000000	0.00000000000000	0.00000000000000	0.00000000000000	0.00000000000000	
4.08998700000000	9.10345400000000	713.07071699999995	43.52545600000000	0.20117400000000	0.00000000000000	0.11342900000000	0.00000000000000	0.00000000000000	0.00000000000000	0.00000000000000	0.00000000000000	0.00000000000000	0.00000000000000	16.16030900000000	0.00000000000000	0.00000000000000	0.00000000000000	0.00000000000000	
4.09166000000000	8.52711400000000	714.44799000000000	43.56498200000000	0.19993800000000	0.00000000000000	0.11338000000000	0.00000000000000	0.00000000000000	0.00000000000000	0.00000000000000	0.00000000000000	0.00000000000000	0.00000000000000	16.23951100000000	0.00000000000000	0.00000000000000	0.00000000000000	0.00000000000000	
4.09331900000000	7.93965600000000	715.84572200000002	43.60769100000000	0.19869200000000	0.00000000000000	0.11333100000000	0.00000000000000	0.00000000000000	0.00000000000000	0.00000000000000	0.00000000000000	0.00000000000000	0.00000000000000	16.32220400000000	0.00000000000000	0.00000000000000	0.00000000000000	0.00000000000000	
4.09498500000000	7.34144600000000	717.26340600000003	43.65342100000000	0.19743700000000	0.00000000000000	0.11328300000000	0.00000000000000	0.00000000000000	0.00000000000000	0.00000000000000	0.00000000000000	0.00000000000000	0.00000000000000	16.40825400000000	0.00000000000000	0.00000000000000	0.00000000000000	0.00000000000000	
4.09665900000000	6.73288500000000	718.70056099999999	43.70202200000000	0.19617500000000	0.00000000000000	0.11323500000000	0.00000000000000	0.00000000000000	0.00000000000000	0.00000000000000	0.00000000000000	0.00000000000000	0.00000000000000	16.49752300000000	0.00000000000000	0.00000000000000	0.00000000000000	0.00000000000000	
4.09832400000000	6.11440500000000	720.15673400000003	43.75335200000000	0.19490700000000	0.00000000000000	0.11318900000000	0.00000000000000	0.00000000000000	0.00000000000000	0.00000000000000	0.00000000000000	0.00000000000000	0.00000000000000	16.58987400000000	0.00000000000000	0.00000000000000	0.00000000000000	0.00000000000000	
4.09999300000000	5.48647100000000	721.63148999999999	43.80728100000000	0.19363400000000	0.00000000000000	0.11314200000000	0.00000000000000	0.00000000000000	0.00000000000000	0.00000000000000	0.00000000000000	0.00000000000000	0.00000000000000	16.68516400000000	0.00000000000000	0.00000000000000	0.00000000000000	0.00000000000000	
